<?xml version="1.0" encoding="utf-8"?>
<!-- Designed by Vexels.com - 2019 All Rights Reserved - https://vexels.com/terms-and-conditions/  -->
<svg version="1.1" id="Capa_1" xmlns="http://www.w3.org/2000/svg" xmlns:xlink="http://www.w3.org/1999/xlink" x="0px" y="0px"
	 viewBox="0 0 1200 1200" enable-background="new 0 0 1200 1200" xml:space="preserve">
<path fill="#576238" d="M319.511,451.503c0.581,4.546,1.698,8.94,3.93,12.991c0.391,0.948,0.781,1.896,1.172,2.844
	c0.438,0.83,0.876,1.66,1.314,2.49c1.369,2.364,2.738,4.728,4.106,7.093c4.881,9.429,12.349,15.091,23.17,15.724
	c3.206,0.187,6.315-0.543,9.304-1.713c0.588-0.23,1.104-0.734,1.701-0.841c4.019-0.715,5.189-3.693,5.865-7.144
	c1.805-9.215,0.445-18.041-3.425-26.488c-3.326-7.258-7.436-14.03-13.266-19.619c-0.448-0.43-0.82-0.94-1.247-1.436
	c0.282-0.478,0.451-0.948,0.768-1.274c11.181-11.501,21.868-23.496,33.74-34.307c11.507-10.48,23.199-20.757,34.8-31.134
	c11.245-10.059,22.55-20.053,33.697-30.221c13.846-12.63,27.577-25.386,41.318-38.131c13.624-12.637,27.193-25.333,40.802-37.986
	c1.494-1.389,3.092-2.667,4.746-4.087c2.856,2.941,5.489,5.665,9.557,6.792c-4.443,7.61-2.833,15.208-1.786,22.69
	c0.284,2.028,0.151,3.686-0.658,5.467c-0.588,1.294-1.17,2.654-1.387,4.042c-1.005,6.428-2.072,12.892-1.718,19.406
	c0.345,6.335,1.252,12.638,1.839,18.962c0.57,6.145,2.953,11.645,5.832,16.988c1.354,2.512,2.621,5.072,4.022,7.557
	c1.009,1.79,2.097,3.547,3.289,5.219c1.288,1.807,2.736,3.499,4.116,5.24c0.493,0.622,0.906,1.34,1.498,1.846
	c3.752,3.203,6.945,6.953,10.408,10.435c4.022,4.044,8.435,7.704,12.737,11.463c1.55,1.354,3.204,2.614,4.926,3.742
	c5.327,3.489,10.354,7.289,14.589,12.119c2.39,2.726,7.791,7.416,7.724,7.692c0.449,0.896,0.898,1.791,1.347,2.687
	c0.406,1.598,0.86,3.168,2.424,4.077c1.378,2.46,2.756,4.92,4.134,7.38c0.107,2.216,0.957,4.18,2.249,5.917
	c1.274,1.713,2.713,3.302,4.079,4.946c0.344,0.706,0.593,1.481,1.047,2.108c4.546,6.287,8.374,13.093,13.744,18.793
	c1.036,1.1,1.773,2.66,2.174,4.136c0.621,2.282,1.021,4.661,1.184,7.022c0.449,6.49,0.626,13,1.872,19.412
	c0.06,0.311,0.121,0.631,0.111,0.945c-0.26,8.178,3.409,14.995,7.51,21.657c1.343,2.182,2.913,4.191,5.177,5.486
	c1.709,0.977,2.402,2.449,2.464,4.31c0.042,1.268,0.223,2.57,0.007,3.799c-0.368,2.099-0.3,4.122,0.486,6.079
	c0.611,1.52,0.066,2.722-0.66,4.019c-5.154,9.209-5.61,18.7-1.24,28.281c2.325,5.096,2.012,9.591-1.124,14.333
	c-2.527,3.82-5.081,7.662-7.384,11.605c-2.109,3.611-2.533,7.812,0.073,11.689c0.354,0.527,0.687,1.076,1.101,1.554
	c1.502,1.734,1.649,3.681,1.08,5.809c-1.147,4.288-2.121,8.626-3.404,12.872c-1.037,3.432-1.142,6.79-0.668,10.331
	c1.199,8.956,2.158,17.944,3.199,26.921c0.731,6.304,1.413,12.614,2.179,18.913c0.151,1.241,0.582,2.447,0.884,3.669
	c0.21,1.261,0.42,2.523,0.629,3.784c0.104,0.647,0.208,1.293,0.312,1.94c0.208,0.942,0.416,1.884,0.623,2.827
	c0.099,0.65,0.197,1.3,0.296,1.95c0.229,1.576,0.458,3.151,0.687,4.727c0.113,0.961,0.225,1.922,0.338,2.883
	c0.175,0.946,0.35,1.892,0.525,2.838c0.122,0.649,0.244,1.297,0.366,1.946c0.096,0.628,0.193,1.256,0.289,1.884
	c0.215,0.963,0.431,1.925,0.647,2.888c0.107,0.944,0.214,1.888,0.321,2.833c-0.356,5.544-0.255,11.03,0.536,16.58
	c1.252,8.781,1.922,17.645,2.859,26.472c0.217,2.046,0.468,4.09,0.785,6.122c0.819,5.246,0.921,10.31-1.574,15.317
	c-1.772,3.557-2.35,7.597-2.005,11.603c0.256,2.967-0.277,5.558-1.79,8.163c-2.821,4.857-4.55,10.115-4.592,15.814
	c-0.016,2.157-0.888,3.954-2.033,5.727c-1.545,2.392-2.879,4.919-4.373,7.345c-2.281,3.704-3.508,7.773-4.405,11.986
	c-2.311,10.851-4.724,21.681-6.963,32.547c-0.604,2.931-0.762,5.958-1.069,8.946c-0.435,4.24-0.819,8.486-1.224,12.729
	c-0.057,0.634-0.115,1.268-0.172,1.901c0,0,0,0,0,0c-0.018,0.62-0.036,1.241-0.053,1.861c-0.742,3.818-0.658,7.632,0.056,11.442
	c-0.318,1.553-0.863,3.1-0.913,4.662c-0.187,5.866-0.228,11.737-0.293,17.607c-0.058,5.237-0.082,10.475-0.108,15.713
	c-0.008,1.585-0.082,3.18,0.068,4.752c0.301,3.16,0.515,6.356,1.183,9.446c0.528,2.437,0.058,4.307-1.536,6.112
	c-0.725,0.821-1.293,1.82-1.764,2.818c-2.504,5.303-4.997,10.611-7.391,15.964c-0.572,1.28-1.023,2.728-1.066,4.112
	c-0.244,7.927-0.549,15.86-0.442,23.787c0.11,8.09,0.689,16.173,1.022,24.26c0.072,1.742,0.005,3.493-0.066,5.238
	c-0.122,3.024,0.03,6.003,0.527,9.011c0.436,2.64,0.466,5.373,0.409,8.06c-0.064,3.013-0.336,6.031-0.68,9.027
	c-0.792,6.9,0.81,13.596,1.597,20.363c0.018,0.157,0.04,0.319,0.094,0.466c3.258,8.822,4.536,18.168,7.203,27.151
	c1.545,5.202,3.571,10.183,5.942,15.041c0.486,0.997,1.122,1.92,1.653,2.896c3.667,6.733,9.681,9.74,16.978,10.713
	c0.944,0.126,1.918,0.121,2.831,0.357c5.251,1.357,10.406,0.567,15.551-0.598c0.929-0.21,1.839-0.523,2.775-0.679
	c4.82-0.802,8.329-3.724,11.589-7.074c1.15-1.182,1.835-2.557,2.024-4.206c0.468-4.099,1.138-8.182,1.42-12.292
	c0.389-5.685,0.357-11.4,0.779-17.082c0.234-3.151,0.881-6.293,1.602-9.378c0.726-3.108,1.3-6.19,1.298-9.403
	c-0.001-1.886,0.426-3.772,0.698-5.952c0.835,0.138,1.595,0.131,2.247,0.393c5.047,2.026,10.426,2.707,15.672,3.925
	c0.919,0.214,1.893,0.328,2.833,0.291c3.057-0.123,5.485,1.266,7.807,3.019c3.542,2.674,6.909,5.606,10.974,7.52
	c0.573,0.27,1.091,0.696,1.687,0.874c6.413,1.918,12.961,3.127,19.657,3.294c1.376,0.034,2.779-0.58,4.151-0.962
	c4.122-1.147,8.229-2.35,12.355-3.488c3.137-0.865,5.845-2.415,8.335-4.983c-0.824-4.467-0.252-9.378-3.258-13.485
	c-0.737-1.006-0.672-2.076-0.547-3.185c0.231-2.05,0.398-4.112,0.739-6.145c1.154-6.879,0.051-13.552-1.468-20.252
	c-0.562-2.48-0.781-4.963-2.466-7.038c-0.317-0.39-0.155-1.17-0.225-1.878c2.411-0.424,4.556,0.022,6.728,0.507
	c2.656,0.594,5.291,0.829,7.925-0.417c1.664-0.787,2.475-1.904,2.448-3.674c-0.046-3.015-0.055-6.033-0.206-9.043
	c-0.367-7.292-1.105-14.58-1.12-21.871c-0.012-5.64-0.299-11.321,1.609-16.919c1.427-4.188,2.708-8.438,4.141-12.642
	c3.839-11.264,7.738-22.514,10.311-34.176c1.367-6.193,3.268-12.266,4.854-18.413c2.46-9.531,5.093-19.025,5.877-28.904
	c0.188-2.367,0.675-4.716,1.118-7.056c1.128-5.965,1.493-11.953,1.065-18.021c-0.222-3.156-0.131-6.351,0.038-9.516
	c0.846-15.865,1.78-31.725,2.64-47.589c0.112-2.058,0.011-4.13-0.054-6.193c-0.222-7.007,0.168-13.966,1.238-20.904
	c0.556-3.605,0.686-7.274,1.099-10.904c0.395-3.471,0.88-6.932,1.375-10.391c0.833-5.815,1.778-11.615,2.544-17.439
	c0.915-6.954,2.666-13.699,4.755-20.374c0.948-3.029,1.805-6.086,2.738-9.12c1.446-4.7,2.861-9.411,4.398-14.082
	c2.034-6.183,4.227-12.315,6.251-18.501c1.827-5.583,3.368-11.263,5.305-16.806c2.74-7.842,4.37-15.889,5.502-24.102
	c0.757-5.492,2.024-10.926,3.285-16.335c1.408-6.038,2.611-12.089,3.429-18.246c0.709-5.341,1.995-10.607,3.09-15.893
	c0.811-3.914,1.184-7.828,0.837-11.834c-0.191-2.202-0.137-4.453,0.082-6.655c0.225-2.255,0.11-4.452-0.434-6.617
	c-1.545-6.157-3.178-12.292-4.727-18.448c-0.812-3.228-1.538-6.477-2.268-9.725c-0.417-1.858-0.675-3.755-1.16-5.594
	c-1.093-4.145-2.125-8.285-2.831-12.531c-1.053-6.338-3.722-12.098-7.259-17.452c-0.034-0.641-0.068-1.283-0.101-1.924
	c0.433-4.295-0.489-8.308-3.443-11.451c-1.546-1.645-2.33-3.441-2.58-5.449c-0.58-4.653-2.364-8.893-4.192-13.112
	c-1.005-2.319-2.406-4.463-3.586-6.709c-3.984-7.585-7.564-15.416-12.035-22.7c-4.036-6.575-6.674-13.665-9.557-20.703
	c-5.414-13.219-10.258-26.677-16.482-39.557c-4.908-10.155-10.088-20.15-16.52-29.469c-9.12-13.212-17.533-26.856-24.512-41.349
	c-1.514-3.145-3.219-6.202-4.939-9.242c-2.524-4.46-4.095-9.286-5.605-14.139c-0.133-0.427-0.018-0.931-0.018-1.752
	c3.228-0.331,6.495-0.666,9.762-1.001c9.159-0.94,18.41-1.431,27.34-3.781c15.502-4.08,30.948-8.384,46.358-12.8
	c7.981-2.287,16.099-4.968,22.718-10.115c1.995-1.551,9.678-10.295,10.02-10.376c0.674-0.887,1.349-1.775,2.023-2.662
	c3.142-2.534,5.345-5.878,7.383-9.241c3.654-6.029,3.048-12.206-0.6-18.014c-3.056-4.865-5.758-9.901-7.719-15.27
	c-2.502-6.85-5.865-13.354-7.847-20.415c-1.9-6.771-5.344-12.887-8.847-18.929c-5.49-9.471-11.069-18.891-16.677-28.293
	c-3.522-5.904-7.858-11.176-13.155-15.566c-3.079-2.552-5.818-5.366-8.308-8.483c-1.78-2.228-3.685-4.385-5.748-6.349
	c-3.609-3.433-6.658-7.18-8.524-11.876c-1.286-3.236-2.791-6.4-4.403-9.49c-1.831-3.51-3.786-6.967-5.891-10.319
	c-1.198-1.908-3.094-3.183-5.24-3.962c-5.991-2.174-12.054-3.993-18.548-3.53c-0.516-0.543-1.032-1.085-1.548-1.628
	c-1.106-1.959-2.656-3.482-4.451-4.826c-1.898-1.42-3.624-3.069-5.53-4.477c-1.823-1.347-3.392-2.828-3.87-5.304
	c-5.353-1.048-9.83,0.027-13.54,3.94c-0.752,0.793-1.609,1.486-2.418,2.225c-1.265,0.345-2.529,0.691-3.793,1.036
	c-4.229,1.968-4.229,1.968-6.942,6.279c-2.59,0.128-4.599,1.566-6.256,3.625c-1.301,1.616-2.809,2.73-4.896,3.492
	c-4.18,1.526-6.585,4.81-7.072,9.336c-0.084,0.78-0.091,1.569-0.139,2.447c-4.801,1.071-8.578,3.454-10.651,8.135
	c-2.495,0.91-5.251,1.173-7.346,3.105c-0.596,0.55-1.776,0.552-2.704,0.64c-2.056,0.195-3.118,1.344-3.492,3.292
	c-0.179,0.931-0.415,1.851-0.664,2.946c-1.02,0.377-2.067,0.692-3.053,1.143c-2.17,0.993-2.901,2.407-2.089,4.582
	c0.773,2.07,1.814,4.045,2.81,6.025c0.711,1.413,1.543,2.764,2.404,4.291c-0.53,0.654-0.939,1.321-1.498,1.821
	c-13.617,12.179-27.268,24.32-40.874,36.512c-9.466,8.482-18.87,17.034-28.321,25.534c-0.694,0.624-1.538,1.082-2.312,1.617
	c-1.1-2.562-2.201-5.124-3.301-7.686c-0.844-2.555-1.688-5.109-2.533-7.664c-0.873-3.343-1.446-6.806-3.835-9.539
	c-0.053-0.307-0.012-0.68-0.174-0.911c-5.526-7.907-11.919-14.783-21.105-18.598c-7.391-3.069-14.978-3.997-22.844-2.811
	c-2.978,0.449-5.939,1.027-8.889,1.638c-2.011,0.417-3.933,0.71-6.068,0.544c-2.802-0.218-5.668,0.305-7.197,3.452
	c-0.422,0.868-1.637,1.425-2.586,1.948c-5.883,3.243-11.11,7.275-15.711,12.202c-6.598,7.066-10.677,15.324-12.197,24.818
	c-0.607,3.792-0.341,7.581,1.69,11.033c0.531,1.886,1.062,3.773,1.593,5.659c0.384,4.673,2.569,8.663,5.035,12.795
	c-0.648,0.697-1.205,1.408-1.873,1.994c-3.56,3.123-7.01,6.343-9.624,10.343c-1.408,2.156-1.313,3.056,0.534,4.941
	c0.439,0.448,0.896,0.892,1.402,1.258c1.539,1.114,3.174,1.405,4.821,0.264c0.759-0.525,1.416-1.197,2.119-1.802
	c0.284,0.018,0.494-0.097,0.632-0.345c0.803-0.489,1.606-0.978,2.409-1.467c0.234,0.046,0.394-0.042,0.481-0.264
	c2.414-1.151,4.827-2.302,7.505-3.578c0.497,0.699,1.125,1.37,1.511,2.159c1.603,3.275,2.997,6.66,4.727,9.865
	c1.878,3.48,4.014,6.823,6.096,10.19c1.155,1.868,2.604,3.567,3.334,5.985c-1.126,1.072-2.234,2.177-3.395,3.224
	c-15.908,14.344-31.881,28.615-47.722,43.032c-23.82,21.679-47.475,43.54-71.343,65.166c-15.754,14.274-31.788,28.237-47.634,42.41
	c-6.384,5.71-12.603,11.607-18.883,17.433c-0.214,0.199-0.29,0.547-0.419,0.828c-1.793,1.211-3.957,1.84-5.417,3.542
	c-0.157-0.011-0.347-0.085-0.467-0.023c-6.851,3.535-12.472,8.445-16.713,14.915C319.953,443.063,318.949,447.104,319.511,451.503z
	 M760.078,121.112c-0.271-1.789-1.05-3.284-1.988-4.778c-0.881-1.404-2.221-2.607-2.404-4.457c4.061-0.067,5.319,0.288,8.193,2.154
	c6.359,4.128,10.689,9.911,13.294,16.918c2.272,6.111,4.895,12.042,7.902,17.814c1.099,2.11,2.283,4.176,3.355,6.299
	c4.468,8.844,7.924,17.978,8.313,28.052c0.147,3.799,0.489,7.603,0.988,11.373c0.712,5.375,0.407,10.744,0.427,16.568
	c-2.408-0.713-4.176-1.469-6.016-1.744c-9.952-1.487-19.886-2.108-29.629,1.32c-0.447,0.157-0.915,0.331-1.378,0.348
	c-0.715,0.026-1.435-0.077-2.482-0.147c0.313-1.9,0.551-3.441,0.825-4.976c0.222-1.246,0.578-2.474,0.716-3.728
	c0.814-7.403,1.822-14.797,2.289-22.223c0.367-5.838,0.524-11.77-0.094-17.568c-0.667-6.263-1.695-12.563-4.103-18.505
	c-0.591-1.46-0.745-3.101-1.36-4.547c-1.853-4.356-1.485-8.253,1.765-11.878C760.256,125.66,760.429,123.428,760.078,121.112z
	 M682.135,1016.882c1.675-3.243,3.212-6.558,4.816-9.837c1.135-2.319,1.771-4.74,1.705-7.346c-0.081-3.173,0.064-6.36-0.171-9.52
	c-0.292-3.923,0.326-7.564,2.25-11.016c1.236-2.217,2.273-4.544,3.454-6.792c2.98-5.674,4.908-11.71,6.116-17.976
	c1.081-5.609,2.049-11.239,3.027-16.867c0.325-1.874,0.537-3.768,0.778-5.656c0.783-6.136,1.553-12.274,2.332-18.411
	c0.2-1.574,0.525-3.139,0.607-4.719c0.405-7.819,2.909-15.265,4.033-22.955c0.113-0.776,0.456-1.519,0.694-2.276
	c1.713-5.451,3.424-10.903,5.141-16.352c1.591-5.049,2.087-10.273,2.123-15.511c0.021-2.978,0.484-5.637,2.302-8.048
	c1.615-2.141,2.113-4.562,1.459-7.214c-0.849-3.447,0.525-6.221,2.816-8.645c0.98-1.036,2.055-1.988,3.133-2.924
	c1.869-1.621,3.181-3.604,3.522-6.047c0.44-3.156,2.002-5.718,4.121-7.894c3.365-3.456,4.957-7.609,5.825-12.256
	c1.575-8.431,3.652-16.748,6.467-24.863c2.135-6.156,3.923-12.398,5.139-18.813c0.619-3.268,1.537-6.489,2.487-9.682
	c0.66-2.219,1.233-4.509,2.69-6.906l0,0l0,0c0.884,1.51,0.541,2.774,0.53,3.955c-0.064,6.51-0.218,13.02-0.235,19.53
	c-0.015,5.712,0.054,11.425,0.189,17.135c0.116,4.92,0.033,9.882,0.67,14.743c0.664,5.068,0.664,10.12,0.804,15.188
	c0.044,1.587-0.152,3.248,0.25,4.744c0.969,3.6,0.787,7.244,0.805,10.882c0.019,3.811-0.129,7.623-0.169,11.434
	c-0.084,7.939-0.166,15.878-0.206,23.817c-0.024,4.762,0.244,9.535,0.014,14.285c-0.606,12.532-0.911,25.066-0.826,37.612
	c0.011,1.583-0.176,3.168-0.265,4.752c-0.195,3.482-0.41,6.963-0.567,10.446c-0.093,2.061,0.031,4.138-0.155,6.189
	c-0.872,9.643-1.804,19.281-2.742,28.918c-1.068,10.974-3.806,21.55-7.629,31.869c-1.083,2.925-2.654,5.45-5.558,6.837
	c-1.665,0.795-2.742,2.109-3.754,3.548c-1.279,1.819-2.501,3.684-3.889,5.416c-1.698,2.119-3.553,4.265-6.378,4.711
	c-3.837,0.606-7.226,2.328-10.75,3.738c-1.303,0.097-2.606,0.194-3.909,0.291l0,0l0,0c0,0,0,0,0,0
	c-0.851-0.093-1.678-0.136-2.481-0.13c-5.62,0.048-10.054,2.555-13.298,7.652c-0.927,1.456-2.159,2.718-3.25,4.07
	c-2.263,0.991-3.474,3.087-5.046,4.804c-1.348,1.472-2.502,3.181-4.795,3.987l0,0l0,0c-0.432-0.775-0.904-1.381-1.13-2.068
	c-1.318-4.017-2.92-7.953-3.49-12.192c-0.099-0.74-0.56-1.431-0.854-2.144C680.805,1020.43,681.23,1018.633,682.135,1016.882z
	 M611.301,209.353c1.482-1.967,1.617-4.276,1.196-6.74c-0.393-2.302-0.328-4.682-0.465-7.029c0.188-0.248,0.287-0.528,0.297-0.838
	c5.113-4.495,10.223-8.995,15.34-13.486c15.131-13.277,30.304-26.506,45.374-39.851c4.862-4.305,9.476-8.893,14.155-13.402
	c0.892-0.86,1.562-1.951,2.334-2.936c0.628-0.055,1.256-0.109,1.884-0.164c1.119,1.09,2.249,2.17,3.354,3.273
	c1.223,1.221,2.29,2.643,3.66,3.663c3.461,2.575,6.004,5.873,8.47,9.365c2.425,3.435,5.814,5.675,10.31,5.561
	c1.9,0.066,3.799,0.131,5.699,0.197c1.179,0.754,2.357,1.507,3.629,2.321c-4.34,4.369-7.157,9.452-9.477,14.879
	c-1.927,4.509-4.23,8.865-6.012,13.428c-1.84,4.709-3.23,9.593-4.855,14.388c-2.031,5.991-4.102,11.969-6.156,17.953l-0.015-0.003
	c-0.111,0.53-0.222,1.059-0.332,1.584c0.11-0.525,0.221-1.055,0.332-1.584c-4.868,0.03-9.738,0.01-14.605,0.117
	c-1.873,0.041-3.747,0.317-5.605,0.593c-1.807,0.268-3.222,1.181-4.007,2.91h0c-2.407,2.351-4.813,4.701-7.22,7.052
	c-1.42,0.393-2.535,1.194-3.299,2.464c0,0,0,0,0,0c-0.259,0.006-0.432,0.131-0.517,0.376c-6.008,3.017-12.056,5.955-18.583,7.694
	c-3.01,0.802-6.094,1.327-9.145,1.977c-3.752-0.092-6.843-1.765-9.677-4.051c-0.539-1.114-1.389-1.85-2.601-2.147c0,0,0,0,0,0
	c-0.543-0.218-1.073-0.575-1.631-0.626c-1.076-0.1-2.169-0.028-3.254-0.027c-1.296-1.566-2.499-3.221-3.91-4.675
	c-2.111-2.175-3.746-4.637-4.95-7.392C610.304,212.563,610.047,211.018,611.301,209.353z"/>
</svg>
